# xmcd CD database file
#
# Track frame offsets:
#	150
#	24068
#	48424
#	70857
#	88268
#	102861
#	127286
#	145624
#	166391
#	185842
#	208111
#	240625
#
# Disc length: 3782 seconds
#
# Revision: 3
# Processed by: cddbd v1.5PL3 Copyright (c) Steve Scherf et al.
# Submitted via: CDex 1.50beta8
#
DISCID=aa0ec40c
DTITLE=寺井尚子 - ジャズ・ワルツ
DYEAR=2003
DGENRE=Jazz
TTITLE0=ジャズ・ワルツ
TTITLE1=アパッショナータ〜情熱
TTITLE2=ダニー・ボーイ
TTITLE3=ラグな気分で
TTITLE4=魅惑のワルツ
TTITLE5=貴婦人のタンゴ
TTITLE6=風に舞う
TTITLE7=砂の記憶
TTITLE8=ヒット・アンド・アウェイ
TTITLE9=アイ・ミー・マイン
TTITLE10=チルドレン
TTITLE11=CD-EXTRA　アパッショナータ〜情熱
EXTD=YEAR: 2003
EXTT0=
EXTT1=
EXTT2=
EXTT3=
EXTT4=
EXTT5=
EXTT6=
EXTT7=
EXTT8=
EXTT9=
EXTT10=
EXTT11=
PLAYORDER=
